# Blender v2.79 (sub 0) OBJ File: ''
# www.blender.org
o Plane
v -0.395520 -0.142371 1.490692
v 0.360016 -0.142371 1.490692
v -1.017752 -0.381802 0.175943
v 0.982248 -0.381802 0.175943
v -0.395520 0.148354 1.490692
v 0.360016 0.148354 1.490692
v -1.017752 0.656646 0.175943
v 0.982248 0.656646 0.175943
v -1.623569 0.162312 -1.401000
v 1.588066 0.162312 -1.401000
v -1.623569 0.759442 -1.401000
v 1.588066 0.759442 -1.401000
v -0.184664 0.452018 1.244247
v 0.149161 0.452018 1.244247
v -0.459590 0.676602 0.663340
v 0.424087 0.676602 0.663340
v -0.094037 0.884153 1.298906
v 0.058534 0.884153 1.298906
v -0.219689 0.986797 1.033409
v 0.184186 0.986797 1.033409
vn 0.0000 -0.9838 0.1792
vn 0.4643 0.7297 0.5019
vn 0.9039 0.0000 0.4278
vn -0.9039 0.0000 0.4278
vn 0.9335 0.0000 0.3586
vn 0.0000 0.0000 1.0000
vn 0.0000 0.0000 -1.0000
vn -0.9335 0.0000 0.3586
vn 0.0000 0.9979 0.0650
vn 0.0000 -0.9453 -0.3262
vn 0.8771 0.1253 0.4636
vn -0.4643 0.7297 0.5019
vn 0.0000 0.9992 -0.0409
vn 0.0000 0.6302 0.7765
vn 0.0000 0.9327 0.3606
vn -0.8771 0.1253 0.4636
vn 0.0000 0.7664 -0.6424
vn 0.0000 -0.1255 0.9921
s off
f 3//1 2//1 1//1
f 6//2 16//2 14//2
f 4//3 6//3 2//3
f 3//4 5//4 7//4
f 8//5 10//5 12//5
f 2//6 5//6 1//6
f 9//7 12//7 10//7
f 7//8 9//8 3//8
f 8//9 11//9 7//9
f 4//10 9//10 10//10
f 14//11 20//11 18//11
f 5//12 15//12 7//12
f 7//13 16//13 8//13
f 6//14 13//14 5//14
f 18//15 19//15 17//15
f 13//16 19//16 15//16
f 16//17 19//17 20//17
f 14//18 17//18 13//18
f 3//1 4//1 2//1
f 6//2 8//2 16//2
f 4//3 8//3 6//3
f 3//4 1//4 5//4
f 8//5 4//5 10//5
f 2//6 6//6 5//6
f 9//7 11//7 12//7
f 7//8 11//8 9//8
f 8//9 12//9 11//9
f 4//10 3//10 9//10
f 14//11 16//11 20//11
f 5//12 13//12 15//12
f 7//13 15//13 16//13
f 6//14 14//14 13//14
f 18//15 20//15 19//15
f 13//16 17//16 19//16
f 16//17 15//17 19//17
f 14//18 18//18 17//18
