# Blender v2.79 (sub 0) OBJ File: ''
# www.blender.org
o Plane
v 0.310127 0.098490 -0.299184
v 1.309392 0.098490 -0.300716
v 0.000467 0.098605 -1.248111
v -0.306794 0.098490 -0.297370
v -0.495862 0.098490 0.288232
v -0.802813 0.098490 1.240484
v 0.000003 0.098490 0.651964
v 0.815539 0.098490 1.239202
v -1.305742 0.098490 -0.295827
v 0.503118 0.098490 0.290536
v 0.310127 0.234657 -0.299184
v 1.309392 0.234657 -0.300716
v 0.000467 0.234773 -1.248111
v -0.306794 0.234657 -0.297370
v -0.495862 0.234657 0.288232
v -0.802813 0.234657 1.240484
v 0.000003 0.234657 0.651964
v 0.815539 0.234657 1.239202
v -1.305742 0.234657 -0.295827
v 0.503118 0.234657 0.290536
v 0.208290 0.121050 -0.158014
v 0.876497 0.121050 -0.159039
v 0.001221 0.121127 -0.792560
v -0.204244 0.121050 -0.156802
v -0.330673 0.121050 0.234790
v -0.535930 0.121050 0.871558
v 0.000911 0.121050 0.478016
v 0.546258 0.121050 0.870701
v -0.872238 0.121050 -0.155769
v 0.337343 0.121050 0.236330
v 0.208290 0.212105 -0.158014
v 0.876497 0.212105 -0.159039
v 0.001221 0.212182 -0.792560
v -0.204244 0.212105 -0.156802
v -0.330673 0.212105 0.234790
v -0.535930 0.212104 0.871558
v 0.000911 0.212105 0.478016
v 0.546258 0.212104 0.870701
v -0.872238 0.212105 -0.155769
v 0.337343 0.212105 0.236330
vn 0.9515 -0.0000 0.3075
vn -0.5914 0.0000 -0.8064
vn 0.5914 0.0000 0.8064
vn -0.9515 0.0000 -0.3075
vn -0.0015 0.0000 -1.0000
vn -0.9518 0.0000 -0.3068
vn 0.5912 0.0000 0.8065
vn -0.5849 0.0000 0.8111
vn -0.5843 0.0000 0.8115
vn 0.9507 0.0000 -0.3102
vn 0.9498 0.0000 -0.3128
vn 0.0015 -0.0000 1.0000
vn 0.9518 0.0000 0.3068
vn -0.5912 0.0000 -0.8065
vn 0.5849 0.0000 -0.8111
vn 0.5843 0.0000 -0.8115
vn -0.9507 0.0000 0.3102
vn -0.9498 0.0000 0.3128
vn -0.1507 -0.9874 0.0491
vn 0.1504 0.9874 0.0487
vn -0.0930 -0.9876 -0.1268
vn -0.0942 0.9872 -0.1285
vn 0.1506 -0.9874 0.0485
vn 0.0002 -0.9874 0.1583
vn -0.1504 0.9874 0.0492
vn 0.0919 -0.9876 -0.1276
vn 0.0931 -0.9873 -0.1291
vn -0.0929 0.9876 -0.1267
vn 0.0002 -0.9874 0.1580
vn -0.1506 -0.9874 0.0496
vn 0.1505 0.9874 0.0485
vn 0.0002 0.9874 0.1582
vn 0.1506 -0.9874 0.0486
vn 0.0919 0.9876 -0.1276
vn 0.0930 0.9873 -0.1290
vn -0.0942 -0.9872 -0.1285
vn 0.0002 0.9875 0.1579
vn -0.1505 0.9874 0.0496
s off
f 23//1 34//1 24//1
f 30//2 32//2 22//2
f 12//3 10//3 2//3
f 14//4 3//4 4//4
f 19//5 4//5 9//5
f 16//6 5//6 6//6
f 17//7 6//7 7//7
f 15//8 9//8 5//8
f 18//9 7//9 8//9
f 3//10 11//10 1//10
f 20//11 8//11 10//11
f 11//5 2//5 1//5
f 24//12 39//12 29//12
f 25//13 36//13 26//13
f 26//14 37//14 27//14
f 29//15 35//15 25//15
f 27//16 38//16 28//16
f 23//17 31//17 33//17
f 28//18 40//18 30//18
f 22//12 31//12 21//12
f 1//19 23//19 3//19
f 14//20 33//20 13//20
f 10//21 22//21 2//21
f 17//22 36//22 16//22
f 5//23 26//23 6//23
f 4//24 29//24 9//24
f 33//25 11//25 13//25
f 7//26 28//26 8//26
f 29//27 5//27 9//27
f 32//28 20//28 12//28
f 22//29 1//29 2//29
f 28//30 10//30 8//30
f 36//31 15//31 16//31
f 39//32 14//32 19//32
f 23//33 4//33 3//33
f 38//34 17//34 18//34
f 15//35 39//35 19//35
f 26//36 7//36 6//36
f 11//37 32//37 12//37
f 20//38 38//38 18//38
f 23//1 33//1 34//1
f 30//2 40//2 32//2
f 12//3 20//3 10//3
f 14//4 13//4 3//4
f 19//5 14//5 4//5
f 16//6 15//6 5//6
f 17//7 16//7 6//7
f 15//8 19//8 9//8
f 18//9 17//9 7//9
f 3//10 13//10 11//10
f 20//11 18//11 8//11
f 11//5 12//5 2//5
f 24//12 34//12 39//12
f 25//13 35//13 36//13
f 26//14 36//14 37//14
f 29//15 39//15 35//15
f 27//16 37//16 38//16
f 23//17 21//17 31//17
f 28//18 38//18 40//18
f 22//12 32//12 31//12
f 1//19 21//19 23//19
f 14//20 34//20 33//20
f 10//21 30//21 22//21
f 17//22 37//22 36//22
f 5//23 25//23 26//23
f 4//24 24//24 29//24
f 33//25 31//25 11//25
f 7//26 27//26 28//26
f 29//27 25//27 5//27
f 32//28 40//28 20//28
f 22//29 21//29 1//29
f 28//30 30//30 10//30
f 36//31 35//31 15//31
f 39//32 34//32 14//32
f 23//33 24//33 4//33
f 38//34 37//34 17//34
f 15//35 35//35 39//35
f 26//36 27//36 7//36
f 11//37 31//37 32//37
f 20//38 40//38 38//38
